<?xml version="1.0" standalone="no"?>
<!DOCTYPE svg PUBLIC "-//W3C//DTD SVG 20010904//EN"
 "http://www.w3.org/TR/2001/REC-SVG-20010904/DTD/svg10.dtd">
<svg version="1.0" xmlns="http://www.w3.org/2000/svg"
 width="610.000000pt" height="610.000000pt" viewBox="0 0 610.000000 610.000000"
 preserveAspectRatio="xMidYMid meet">
<metadata>
Created by potrace 1.11, written by Peter Selinger 2001-2013
</metadata>
<g transform="translate(0.000000,610.000000) scale(0.100000,-0.100000)"
fill="#000000" stroke="none">
<path d="M2980 5993 c0 -5 -21 -7 -46 -6 -25 2 -53 -1 -62 -6 -9 -5 -26 -5
-39 0 -18 6 -25 5 -29 -5 -3 -8 -12 -12 -20 -9 -8 3 -20 0 -28 -6 -7 -6 -16
-8 -19 -4 -4 3 -7 1 -7 -5 0 -7 -3 -11 -7 -11 -5 1 -10 1 -13 -1 -3 -1 -16 -4
-30 -6 -13 -2 -27 -9 -30 -15 -4 -5 -11 -9 -16 -8 -23 4 -45 -2 -39 -11 4 -6
3 -10 -2 -9 -25 4 -42 -3 -48 -21 -4 -11 -11 -18 -16 -15 -9 6 -74 -37 -96
-64 -7 -8 -13 -12 -13 -8 0 8 -47 -33 -109 -95 -61 -62 -71 -75 -64 -82 4 -3
1 -6 -5 -6 -7 0 -12 -5 -12 -11 0 -7 -11 -21 -23 -33 -13 -12 -23 -30 -21 -40
1 -10 0 -15 -3 -12 -8 8 -42 -57 -35 -68 3 -5 0 -6 -6 -2 -11 6 -16 -6 -13
-26 0 -5 -4 -8 -10 -8 -6 0 -9 -9 -6 -19 3 -12 -1 -22 -10 -25 -8 -4 -13 -13
-9 -21 3 -8 1 -15 -4 -15 -6 0 -9 -3 -8 -7 2 -12 -14 -47 -26 -55 -8 -5 -7 -8
1 -8 14 0 6 -31 -11 -42 -7 -5 -6 -8 3 -8 10 0 11 -3 2 -13 -6 -8 -8 -17 -4
-20 3 -4 1 -12 -4 -19 -6 -7 -9 -21 -8 -30 2 -10 -2 -18 -8 -18 -8 0 -8 -3 0
-11 7 -7 8 -21 2 -41 -4 -17 -6 -35 -3 -39 3 -5 0 -9 -7 -9 -10 0 -10 -3 -2
-11 7 -7 8 -21 3 -40 -5 -17 -5 -29 0 -29 6 0 6 -10 0 -25 -5 -14 -6 -25 -2
-25 4 0 7 -22 7 -49 0 -27 -3 -47 -7 -45 -4 3 -4 -5 1 -18 4 -13 5 -35 0 -50
-4 -16 -4 -28 0 -28 5 0 7 -11 6 -25 -2 -14 1 -25 6 -25 6 0 8 -4 5 -8 -3 -5
9 -21 25 -37 23 -21 27 -30 17 -36 -7 -5 -8 -9 -3 -9 9 0 12 -62 5 -80 -1 -3
-1 -9 0 -15 10 -47 10 -56 -1 -50 -8 6 -8 2 0 -14 9 -16 9 -21 -1 -21 -10 0
-10 -2 -1 -8 14 -9 12 -44 -2 -54 -6 -5 -6 -8 2 -8 13 0 12 -38 -2 -59 -6 -10
-4 -12 5 -6 10 6 12 4 7 -10 -4 -9 -2 -25 5 -33 9 -11 9 -14 1 -9 -6 4 -14 3
-18 -3 -3 -5 -2 -10 2 -10 5 0 9 -9 9 -20 0 -11 -5 -20 -11 -20 -6 0 -5 -4 2
-8 14 -9 12 -44 -2 -54 -6 -5 -6 -8 1 -8 6 0 11 -13 11 -30 0 -16 -5 -27 -10
-23 -5 3 -4 -4 2 -16 9 -16 9 -21 -1 -21 -10 0 -10 -2 1 -9 10 -6 10 -13 2
-28 -5 -11 -7 -24 -3 -28 11 -11 9 -65 -2 -65 -7 0 -8 -3 -1 -8 14 -10 17 -32
4 -32 -8 0 -8 -4 0 -13 7 -10 7 -17 0 -24 -8 -8 -7 -13 1 -18 11 -7 -74 -95
-93 -95 -4 0 -6 -4 -2 -9 3 -5 -3 -12 -13 -15 -10 -3 -25 -19 -35 -35 -10 -16
-33 -46 -52 -66 -20 -20 -33 -40 -30 -46 4 -5 3 -8 -2 -7 -4 2 -9 -1 -10 -5
-1 -5 -11 -17 -22 -26 -11 -10 -18 -21 -14 -25 3 -3 1 -6 -5 -6 -7 0 -11 -6
-10 -12 2 -7 -3 -12 -10 -10 -8 1 -11 -2 -8 -7 3 -5 -4 -20 -15 -35 -11 -14
-18 -26 -14 -26 3 0 -2 -11 -11 -25 -9 -14 -12 -25 -8 -25 5 0 0 -7 -10 -15
-11 -8 -16 -15 -12 -15 5 0 3 -7 -4 -15 -7 -8 -9 -15 -5 -15 4 0 2 -6 -4 -14
-7 -8 -14 -24 -16 -36 -2 -12 -12 -29 -22 -37 -10 -8 -12 -12 -5 -8 6 3 12 1
12 -4 0 -6 -5 -11 -11 -11 -6 0 -9 -7 -5 -15 3 -8 1 -15 -4 -15 -6 0 -10 -5
-10 -11 0 -5 6 -7 13 -3 9 6 9 5 0 -8 -7 -8 -9 -19 -5 -23 4 -5 1 -5 -5 -1 -7
4 -13 4 -14 -1 -3 -44 -11 -78 -18 -82 -4 -4 -7 -21 -6 -38 1 -18 -3 -33 -8
-33 -6 0 -7 -3 -4 -6 3 -4 1 -16 -5 -27 -9 -17 -8 -19 7 -13 14 5 16 4 7 -7
-7 -8 -9 -17 -5 -20 3 -4 2 -7 -4 -7 -7 0 -9 -61 -7 -182 4 -242 7 -287 18
-280 5 3 7 -2 3 -11 -3 -10 -2 -17 4 -17 6 0 8 -4 5 -8 -3 -5 2 -21 10 -37 8
-15 12 -30 9 -33 -3 -3 -5 1 -5 8 0 7 -3 11 -6 8 -3 -4 1 -19 10 -36 8 -16 12
-32 9 -36 -4 -3 -2 -6 4 -6 5 0 10 -7 11 -15 1 -8 3 -22 4 -30 1 -8 5 -15 10
-15 5 0 6 -5 3 -10 -3 -5 -1 -10 5 -10 6 0 8 -4 5 -10 -3 -5 0 -10 7 -10 10 0
10 -2 1 -8 -10 -6 -8 -17 7 -45 11 -20 18 -37 15 -37 -2 0 5 -19 17 -42 22
-41 28 -59 30 -85 1 -7 5 -13 9 -13 4 0 10 -14 14 -31 4 -17 13 -33 21 -36 8
-3 14 -9 14 -15 0 -5 -6 -6 -12 -2 -7 4 -5 -2 5 -13 10 -11 20 -31 22 -43 3
-13 9 -26 14 -29 5 -4 11 -13 13 -21 2 -8 11 -23 21 -32 10 -9 18 -19 18 -22
-4 -30 1 -46 10 -40 7 4 10 1 7 -7 -3 -8 4 -22 15 -32 11 -9 17 -17 13 -17 -9
0 21 -58 52 -99 14 -19 19 -31 11 -27 -8 4 -3 -2 10 -13 13 -12 20 -21 16 -21
-4 0 -2 -6 4 -13 6 -8 8 -17 4 -20 -3 -4 -1 -7 5 -7 7 0 12 -7 12 -15 0 -8 5
-15 11 -15 5 0 7 -5 4 -10 -4 -6 -1 -9 7 -8 8 2 13 -7 14 -23 1 -30 12 -51 23
-45 8 5 47 -54 43 -66 -1 -5 5 -8 14 -8 8 0 12 -4 9 -10 -3 -5 5 -21 18 -34
14 -14 22 -27 20 -30 -3 -3 13 -30 36 -60 22 -30 41 -60 41 -66 0 -5 5 -10 10
-10 6 0 10 -7 10 -16 0 -9 5 -12 12 -8 7 5 10 2 6 -7 -5 -16 27 -51 37 -41 4
4 6 2 5 -3 -5 -21 1 -33 26 -59 15 -14 23 -26 19 -26 -5 0 8 -16 27 -35 20
-18 32 -35 27 -37 -5 -2 4 -16 19 -33 16 -16 31 -38 35 -48 4 -10 11 -15 17
-12 5 3 10 -3 10 -14 0 -11 6 -24 13 -28 7 -4 20 -19 29 -33 8 -14 39 -48 67
-76 28 -28 48 -54 45 -57 -3 -3 4 -11 16 -17 12 -6 19 -14 16 -17 -3 -3 6 -17
20 -30 14 -12 22 -23 19 -23 -3 0 3 -10 14 -23 71 -79 100 -107 111 -107 8 0
11 -3 8 -6 -3 -3 6 -18 21 -33 22 -23 33 -27 73 -24 34 2 53 9 72 28 14 14 26
30 26 36 0 6 3 8 8 6 4 -2 15 4 25 15 9 10 14 18 11 18 -3 0 15 20 41 44 26
25 44 50 40 55 -3 7 0 8 9 5 10 -4 16 -1 16 9 0 9 15 32 34 51 18 20 31 38 28
41 -3 3 2 5 12 5 9 0 15 4 11 9 -3 6 8 24 24 40 17 17 28 31 25 31 -2 0 9 13
26 30 16 16 30 34 30 40 0 6 5 8 12 4 6 -4 8 -3 4 4 -3 6 5 22 19 36 14 14 22
26 18 26 -4 0 0 5 10 11 9 5 17 16 17 22 0 7 9 19 19 27 11 7 18 17 15 21 -2
4 10 22 28 40 18 17 26 28 18 24 -8 -3 -5 2 8 13 12 11 22 23 22 26 0 3 8 15
18 26 9 11 16 23 14 26 -2 3 7 14 19 25 12 10 18 19 13 19 -5 0 2 7 14 16 12
8 22 21 22 28 0 7 9 22 19 33 11 12 17 24 14 27 -4 3 -1 6 5 6 7 0 12 5 12 11
0 7 8 18 18 26 11 10 12 12 2 8 -8 -4 -6 1 4 9 11 9 16 16 11 16 -5 0 1 9 13
20 12 12 22 27 22 35 0 7 4 15 9 17 5 2 11 9 13 17 5 22 32 48 43 43 6 -3 7
-2 3 3 -4 4 -3 14 3 22 6 7 8 13 4 13 -5 0 2 8 13 19 12 10 19 21 15 25 -3 3
-1 6 6 6 7 0 9 5 6 10 -3 5 -1 10 5 10 6 0 8 5 5 10 -3 6 -1 10 5 10 6 0 9 4
6 9 -3 4 6 21 19 37 14 16 23 35 20 42 -3 7 -1 11 4 8 5 -3 12 6 15 19 4 16
11 23 18 19 8 -5 9 -2 5 9 -3 10 -2 17 4 17 6 0 7 5 4 10 -3 6 -2 10 4 10 5 0
12 13 16 30 4 16 11 30 16 30 6 0 7 4 4 10 -3 5 -1 10 5 10 6 0 9 4 5 9 -3 6
3 14 12 20 10 6 14 11 10 11 -5 0 1 14 13 30 12 17 18 30 15 30 -3 0 3 13 14
29 11 15 18 31 14 35 -3 3 -1 6 5 6 7 0 11 3 10 8 -4 14 13 52 24 52 5 0 8 7
4 15 -3 8 -1 15 5 15 6 0 7 5 4 10 -3 6 -1 10 5 10 6 0 9 4 5 9 -6 10 14 62
28 72 5 3 7 8 6 10 -1 2 3 20 11 39 7 19 14 40 16 45 1 6 3 13 4 18 1 4 4 12
5 17 1 6 4 12 5 15 1 3 3 9 4 14 0 5 4 12 8 16 4 4 4 14 1 23 -4 9 -2 13 4 9
10 -7 26 40 26 76 0 9 3 17 8 17 4 0 6 9 4 20 -2 11 0 20 5 20 5 0 6 7 3 17
-4 10 -2 14 5 9 7 -4 10 1 7 14 -2 11 0 20 4 20 4 0 7 21 7 46 -1 25 2 48 7
51 4 2 7 9 7 14 0 6 -6 7 -12 3 -9 -5 -9 -2 1 9 7 9 10 17 5 17 -5 0 -2 5 6
10 10 7 11 13 5 18 -12 8 -13 27 -3 38 4 4 3 13 -2 20 -12 14 -10 36 5 47 7 4
7 10 0 15 -12 8 -13 27 -3 38 4 4 3 13 -3 21 -8 9 -8 17 -1 26 8 9 7 21 -3 40
-10 19 -10 25 -2 20 7 -4 4 6 -7 21 -10 16 -13 25 -7 22 6 -4 11 -3 11 3 0 5
-5 13 -10 16 -8 5 -7 11 1 21 9 11 9 14 0 14 -7 0 -10 4 -6 9 3 5 1 13 -5 16
-8 5 -7 12 2 23 8 9 8 13 2 9 -7 -4 -15 0 -18 9 -4 10 -2 13 7 8 6 -4 4 2 -6
13 -9 11 -14 23 -11 26 4 4 1 14 -7 24 -8 10 -9 14 -2 10 8 -5 8 1 -2 19 -8
15 -12 31 -9 36 3 4 0 8 -6 8 -7 0 -10 6 -7 14 3 8 -1 20 -8 26 -8 7 -13 15
-10 19 2 4 -2 19 -10 34 -7 14 -11 28 -7 31 3 3 0 6 -7 6 -7 0 -9 4 -6 10 3 6
1 10 -5 10 -6 0 -8 4 -5 10 3 6 1 10 -5 10 -7 0 -10 6 -7 13 3 8 -3 20 -13 27
-10 7 -16 19 -13 26 3 8 -2 17 -11 20 -9 3 -14 9 -11 14 2 4 -4 16 -15 27 -10
12 -16 24 -13 27 4 3 -1 6 -9 6 -13 0 -31 33 -25 43 1 1 -4 9 -11 17 -7 8 -20
24 -28 35 -9 11 -13 13 -9 5 4 -8 -3 -4 -14 10 -11 14 -21 31 -21 38 0 7 -4
10 -10 7 -5 -3 -10 0 -10 7 -1 7 -19 27 -40 43 -21 17 -39 34 -40 38 0 10 -30
41 -30 32 0 -3 -6 0 -13 6 -14 13 -17 36 -20 137 -1 36 2 62 8 62 7 0 7 3 0 8
-6 4 -10 95 -10 237 0 142 4 233 10 237 7 5 7 8 0 8 -8 0 -11 97 -6 176 1 7
12 22 26 35 13 13 25 32 25 42 0 9 4 17 9 17 4 0 5 18 1 40 -4 24 -3 43 2 46
6 4 5 10 -3 15 -12 7 -12 9 0 9 10 0 11 3 2 13 -6 8 -8 17 -4 20 9 10 3 128
-7 148 -6 10 -5 20 2 27 9 9 9 12 1 12 -8 0 -9 9 -3 30 5 17 5 30 1 30 -4 0
-8 7 -8 15 0 8 4 15 9 15 5 0 3 9 -5 21 -8 11 -13 29 -10 40 3 12 0 19 -8 19
-12 0 -12 2 -1 9 11 6 10 10 -3 15 -14 5 -15 9 -5 21 9 11 9 15 1 15 -7 0 -9
5 -6 10 3 6 1 10 -4 10 -6 0 -11 5 -11 11 0 5 4 8 9 5 5 -4 0 13 -11 36 -11
23 -21 47 -23 52 -1 6 -5 19 -9 28 -4 9 -9 23 -10 32 -1 8 -6 19 -11 23 -4 4
-5 2 -1 -4 4 -7 5 -13 2 -13 -3 0 -10 10 -17 21 -9 17 -8 20 2 13 7 -4 2 8
-12 27 -13 19 -24 39 -24 44 -1 6 -6 9 -13 8 -6 -2 -9 4 -6 12 4 8 -1 17 -10
21 -9 3 -14 10 -11 14 3 5 -7 20 -22 34 -15 14 -24 26 -19 26 5 0 -1 8 -12 19
-12 10 -22 23 -22 30 0 6 -9 16 -20 23 -11 7 -20 19 -20 26 0 7 -5 10 -10 7
-6 -3 -13 1 -16 9 -3 9 -12 16 -20 16 -8 0 -14 7 -14 16 0 8 -4 12 -10 9 -5
-3 -15 3 -22 15 -7 11 -18 20 -25 20 -7 0 -13 4 -13 10 0 5 -7 7 -15 4 -10 -4
-15 0 -15 11 0 9 -4 13 -10 10 -5 -3 -10 -1 -10 5 0 6 -4 8 -10 5 -5 -3 -10 0
-10 9 0 8 -8 13 -17 12 -10 -2 -26 7 -36 18 -10 12 -16 15 -12 9 10 -20 -6
-15 -26 9 -11 11 -19 18 -19 13 0 -4 -8 -1 -17 6 -15 12 -16 12 -8 -1 7 -12 6
-13 -7 -3 -8 7 -18 10 -21 6 -4 -3 -7 -1 -7 6 0 8 -7 11 -15 7 -8 -3 -15 -1
-15 5 0 6 -4 7 -10 4 -5 -3 -10 -1 -10 6 0 7 -3 9 -7 6 -3 -4 -12 -2 -20 4
-10 9 -13 8 -13 -1 0 -9 -3 -10 -13 -1 -8 6 -17 8 -20 4 -4 -3 -7 -2 -7 4 0 5
-12 9 -27 9 -16 -1 -34 3 -40 8 -8 5 -13 5 -13 -1 0 -7 -15 -8 -40 -3 -25 5
-40 4 -40 -3 0 -5 -7 -4 -15 3 -8 7 -15 8 -15 3z m-25 -298 c11 0 26 4 33 8 6
5 12 4 12 -1 0 -12 63 -9 72 3 5 6 8 5 8 -3 0 -9 5 -10 18 -3 14 7 25 6 42 -6
18 -12 21 -13 15 -2 -7 11 -6 12 7 2 8 -7 18 -10 21 -6 4 3 7 1 7 -6 0 -8 7
-10 19 -6 12 3 21 0 25 -11 4 -9 13 -14 21 -10 8 3 15 0 15 -6 0 -6 3 -8 6 -5
4 3 16 1 28 -5 11 -7 24 -11 29 -10 4 1 7 -2 7 -6 0 -5 16 -14 35 -22 24 -9
31 -16 23 -22 -10 -6 -9 -8 3 -8 8 0 24 -8 35 -18 10 -9 33 -28 49 -41 17 -12
29 -25 28 -27 -2 -2 0 -3 3 -1 3 1 12 -11 20 -26 8 -15 18 -26 22 -23 4 3 9
-5 9 -17 1 -12 7 -23 13 -25 5 -2 10 -11 10 -19 0 -9 10 -24 22 -34 11 -11 17
-19 12 -19 -5 0 -4 -4 3 -8 6 -4 13 -14 15 -22 2 -8 9 -21 16 -28 6 -7 12 -18
12 -23 0 -6 -6 -7 -12 -3 -7 4 -5 -2 5 -13 9 -11 14 -23 10 -26 -3 -4 -2 -7 4
-7 5 0 10 -14 11 -32 0 -17 6 -34 12 -38 9 -6 9 -9 1 -15 -9 -5 -9 -10 0 -21
6 -8 9 -17 6 -21 -4 -3 -2 -14 3 -24 6 -10 6 -20 2 -23 -10 -6 -9 -36 2 -54 4
-6 4 -12 -1 -12 -10 0 -9 -212 1 -228 4 -7 1 -12 -6 -13 -10 0 -10 -2 1 -6 11
-5 11 -7 0 -14 -12 -8 -12 -10 0 -18 8 -5 10 -14 6 -21 -4 -7 -3 -15 3 -19 14
-9 45 -81 35 -81 -9 0 -8 -154 1 -175 2 -7 2 -15 -1 -18 -9 -10 -8 -187 2
-187 5 0 4 -5 -2 -11 -6 -6 -7 -25 -3 -50 4 -21 5 -39 1 -39 -3 0 -5 -49 -4
-109 2 -103 1 -110 -18 -108 -10 1 -19 4 -19 8 0 4 -13 12 -30 18 -16 5 -30
15 -30 20 0 6 -5 11 -11 11 -5 0 -7 -6 -3 -12 4 -7 -2 -5 -13 5 -11 9 -23 14
-26 10 -4 -3 -7 -1 -7 5 0 7 -9 12 -19 12 -11 0 -21 5 -23 10 -2 6 -14 12 -27
15 -12 2 -29 9 -35 15 -7 5 -16 7 -19 3 -4 -3 -7 -2 -7 3 0 5 -9 11 -20 12
-11 1 -28 2 -37 3 -10 1 -24 6 -30 12 -7 5 -13 6 -13 1 0 -5 -5 -2 -10 6 -8
12 -10 12 -10 1 0 -11 -5 -10 -20 4 -13 12 -20 14 -20 5 0 -9 -3 -10 -13 -1
-8 6 -30 12 -50 13 -20 2 -37 7 -37 12 0 5 -6 4 -13 -2 -8 -7 -18 -8 -27 -1
-8 5 -49 9 -91 8 -42 -1 -81 1 -87 5 -6 3 -13 2 -17 -3 -4 -7 -15 -7 -30 -1
-14 5 -25 6 -25 2 0 -4 -21 -8 -48 -9 -78 -4 -102 -8 -102 -15 0 -3 -9 -4 -20
-1 -12 3 -20 0 -20 -7 0 -10 -3 -10 -15 0 -12 10 -15 10 -15 0 0 -7 -6 -10
-14 -7 -8 3 -17 3 -21 -1 -4 -4 -10 -7 -13 -8 -4 0 -14 -4 -22 -7 -8 -4 -26
-9 -40 -11 -14 -3 -26 -5 -27 -7 -2 -1 -12 -2 -22 -3 -11 0 -23 -5 -28 -10 -5
-5 -2 -6 6 -1 10 6 12 4 7 -4 -5 -7 -14 -10 -22 -7 -8 3 -14 0 -14 -6 0 -6 -3
-8 -7 -5 -3 4 -12 2 -20 -4 -7 -6 -13 -8 -13 -3 0 4 -7 -1 -16 -12 -8 -10 -13
-14 -10 -7 5 8 0 8 -19 0 -14 -7 -25 -15 -25 -19 0 -5 -11 -8 -25 -8 -14 0
-28 -6 -31 -13 -2 -7 -15 -14 -29 -15 l-24 -2 0 175 c0 97 -2 179 -5 183 -3 4
-1 14 4 22 5 8 5 22 -1 32 -5 10 -6 18 -1 18 5 0 9 7 9 15 0 8 -4 15 -9 15 -5
0 -6 6 -1 13 10 16 13 37 5 37 -4 0 -7 11 -7 25 0 14 3 25 7 25 4 0 4 11 -1
23 -5 13 -6 30 -1 37 5 7 4 24 -1 37 -5 14 -5 23 1 23 6 0 5 11 -1 27 -6 15
-7 24 -3 21 10 -11 47 41 40 57 -3 8 0 15 7 16 9 0 9 2 0 6 -9 3 -10 10 -3 24
8 14 7 19 -2 19 -8 0 -9 3 -3 8 14 10 17 32 5 32 -5 0 -6 9 -2 23 7 20 8 58 2
82 -1 6 -1 12 0 15 8 21 6 40 -3 40 -8 0 -8 3 -2 8 14 10 17 32 5 32 -6 0 -6
10 1 27 7 20 7 29 -2 32 -8 2 -7 6 2 12 12 7 12 9 0 9 -11 0 -11 3 -1 15 7 8
10 21 7 29 -3 8 1 17 10 21 12 4 13 9 5 17 -8 8 -8 15 -1 24 6 7 12 26 13 43
1 17 6 34 11 38 4 4 5 2 1 -4 -4 -7 -2 -13 5 -13 6 0 9 8 6 20 -3 11 -1 23 4
26 5 3 7 10 4 15 -4 5 -1 9 5 9 6 0 9 4 6 9 -3 5 1 12 10 15 8 3 13 10 9 15
-3 5 0 13 6 16 5 4 8 14 5 22 -3 8 -1 11 4 8 6 -3 10 -1 10 5 0 6 4 9 9 5 6
-3 8 4 6 15 -2 11 0 18 6 15 5 -4 9 1 9 9 0 9 5 16 10 16 6 0 10 6 10 14 0 7
18 30 39 49 22 19 37 38 33 41 -3 3 2 6 11 6 9 0 21 8 26 18 6 9 11 13 11 8 0
-4 9 2 21 15 11 13 18 17 14 9 -4 -8 6 -1 20 15 15 17 24 23 20 15 -3 -8 1 -6
10 5 9 11 21 19 27 17 5 -1 16 2 23 8 7 6 19 9 26 8 8 -2 13 2 12 7 -1 6 6 11
15 12 34 2 66 13 74 25 6 10 8 9 8 -2 0 -13 2 -13 9 -1 5 8 16 11 25 8 8 -3
18 -1 22 5 4 5 9 6 13 1 3 -5 15 -8 26 -8z m15 -2220 c0 4 8 1 17 -6 9 -8 14
-9 10 -2 -8 13 99 13 122 -1 10 -7 12 -5 6 5 -8 12 -6 12 8 0 9 -7 17 -10 17
-6 0 4 8 1 17 -6 15 -12 16 -12 8 1 -7 12 -4 12 11 -1 10 -9 47 -25 81 -35 34
-10 59 -22 56 -27 -3 -5 0 -8 8 -5 8 3 20 -2 28 -9 11 -12 15 -12 22 -1 7 10
9 9 9 -5 0 -10 5 -15 10 -12 6 3 10 2 10 -4 0 -6 15 -17 33 -26 17 -8 45 -26
61 -40 16 -14 33 -25 38 -25 4 0 7 -6 6 -12 -2 -7 3 -12 10 -10 6 1 12 -3 12
-8 0 -6 11 -22 25 -36 14 -14 22 -31 19 -37 -4 -7 -4 -9 0 -5 5 4 19 -4 32
-17 26 -26 31 -40 12 -30 -7 4 -4 -2 7 -12 22 -21 53 -69 62 -95 3 -10 9 -18
13 -18 5 0 6 -10 2 -22 -4 -16 -2 -19 8 -13 9 5 11 4 6 -4 -4 -6 -2 -18 4 -26
7 -8 9 -15 6 -15 -4 0 -2 -9 3 -19 6 -10 14 -43 17 -73 4 -29 11 -56 16 -59
12 -7 10 -19 -4 -36 -7 -9 -7 -13 1 -13 9 0 9 -5 0 -21 -8 -16 -8 -20 1 -14 9
6 9 2 1 -14 -7 -11 -8 -21 -3 -21 5 0 9 -7 9 -15 0 -8 -5 -15 -10 -15 -6 0 -6
-5 -1 -12 13 -18 -1 -126 -20 -156 -4 -7 -2 -12 6 -12 9 0 9 -3 2 -8 -13 -9
-27 -41 -28 -67 0 -11 -7 -26 -16 -33 -8 -8 -9 -10 -2 -7 11 6 11 3 0 -14 -7
-12 -15 -21 -18 -21 -3 0 -6 -12 -7 -27 0 -15 -9 -33 -19 -40 -10 -7 -14 -13
-8 -13 5 -1 -2 -10 -15 -20 -13 -11 -20 -20 -16 -20 5 0 -2 -9 -15 -20 -13
-11 -21 -20 -18 -20 3 0 -27 -33 -66 -74 -39 -40 -72 -72 -74 -71 -2 2 -12 -4
-22 -13 -37 -33 -55 -47 -61 -47 -4 0 -10 -3 -14 -7 -4 -4 -14 -4 -23 -1 -10
4 -13 2 -8 -5 4 -7 2 -12 -3 -12 -18 0 -25 -3 -44 -21 -11 -10 -32 -16 -49
-15 -18 1 -32 -3 -35 -11 -4 -11 -8 -11 -21 -1 -9 7 -13 8 -9 2 3 -6 -5 -16
-18 -22 -15 -7 -25 -8 -25 -2 0 6 -10 6 -26 0 -14 -6 -30 -8 -35 -4 -5 3 -9 2
-9 -3 0 -4 -11 -8 -25 -8 -14 0 -25 4 -25 8 0 5 -5 5 -12 1 -16 -10 -108 -11
-108 0 0 5 -7 3 -15 -4 -12 -10 -15 -10 -15 0 0 9 -7 7 -20 -5 -17 -15 -20
-16 -15 -3 5 12 0 15 -24 13 -17 -1 -31 1 -31 5 0 8 -45 20 -94 26 -16 1 -32
6 -35 11 -10 13 -49 33 -66 33 -8 0 -15 5 -15 12 0 6 -3 8 -6 5 -8 -8 -64 24
-64 36 0 5 -7 7 -15 4 -8 -4 -17 -1 -21 5 -5 7 -2 8 6 3 9 -5 11 -4 6 3 -4 7
-14 12 -22 12 -8 0 -13 6 -11 13 1 6 -3 11 -9 10 -6 -1 -28 18 -49 42 -20 25
-44 45 -53 45 -8 0 -13 2 -10 5 5 6 -14 32 -54 76 -10 10 -15 19 -12 19 3 0
-4 12 -15 26 -11 15 -18 30 -15 35 3 5 0 9 -5 9 -6 0 -11 9 -11 20 0 11 -7 23
-16 27 -13 5 -13 7 -2 14 10 7 10 9 1 9 -7 0 -13 9 -13 19 0 11 -4 22 -9 26
-6 3 -8 14 -6 25 2 11 -1 22 -6 25 -5 4 -7 11 -4 16 4 5 1 9 -6 9 -8 0 -7 5 2
17 10 11 10 14 2 9 -14 -8 -17 2 -13 42 1 12 -4 22 -12 22 -10 0 -9 3 2 10 8
5 10 10 4 10 -12 0 -12 49 0 68 4 7 3 12 -2 12 -13 0 -10 63 3 72 6 5 6 8 -2
8 -8 0 -9 10 -1 36 5 20 7 42 4 50 -3 8 -1 14 5 14 6 0 9 6 6 14 -3 8 -2 16 3
18 4 2 10 19 11 38 2 19 8 38 13 42 5 3 10 19 12 34 2 16 8 30 14 32 5 2 10 8
10 13 0 6 -6 7 -12 4 -7 -4 -6 -1 3 7 8 7 24 32 34 55 10 23 22 40 26 38 4 -3
10 7 13 20 4 14 10 23 15 20 5 -2 12 7 15 20 4 14 11 23 16 20 5 -3 12 4 15
16 4 11 9 18 12 15 7 -6 33 19 33 33 0 5 9 13 20 16 11 4 19 9 17 13 -4 7 28
42 38 42 3 0 10 0 16 0 5 0 8 4 5 9 -4 5 7 12 24 16 16 4 30 11 30 16 0 5 7 9
16 9 8 0 12 4 9 10 -3 6 1 7 9 4 9 -3 16 -1 16 5 0 6 3 10 8 9 4 -1 17 3 28
10 12 6 25 8 29 4 3 -4 13 2 21 12 10 14 14 16 14 5 1 -10 3 -9 11 4 6 9 15
15 20 11 6 -3 17 2 25 12 9 11 12 13 8 5 -5 -10 -1 -11 14 -7 44 14 69 18 124
19 39 0 55 4 51 11 -4 6 1 5 10 -3 9 -7 17 -10 17 -6z"/>
</g>
</svg>
